<svg id="Capa_1" data-name="Capa 1" xmlns="http://www.w3.org/2000/svg" viewBox="0 0 230.78 104.02"><defs><style>.cls-1{fill:#fff;}.cls-2{fill:#44d0d5;}.cls-3{fill:#50a7b2;}</style></defs><title>logo-likit</title><path class="cls-1" d="M220.6,337.19v43.73h19.21q4.57,0,7,2.22a7.23,7.23,0,0,1,2.44,5.59,7.05,7.05,0,0,1-2.41,5.55q-2.41,2.13-7,2.13H213.3q-6.16,0-8.85-2.73t-2.7-8.82V337.19q0-5.71,2.57-8.57a8.66,8.66,0,0,1,6.76-2.86,9,9,0,0,1,6.89,2.82Q220.6,331.41,220.6,337.19Z" transform="translate(-201.75 -293.97)"/><path class="cls-1" d="M262.7,319.48a9.14,9.14,0,0,1-6.19-2.22,8.62,8.62,0,0,1,.06-12.35,8.85,8.85,0,0,1,6.13-2.38,9.09,9.09,0,0,1,6,2.16,7.7,7.7,0,0,1,2.6,6.28,7.93,7.93,0,0,1-2.54,6.25A8.78,8.78,0,0,1,262.7,319.48Zm8.57,17.9v50.08q0,5.21-2.48,7.87a8.2,8.2,0,0,1-6.28,2.67,7.83,7.83,0,0,1-6.19-2.73q-2.38-2.73-2.38-7.81V337.88q0-5.14,2.38-7.74a8,8,0,0,1,6.19-2.6,8.3,8.3,0,0,1,6.28,2.6A10.08,10.08,0,0,1,271.27,337.38Z" transform="translate(-201.75 -293.97)"/><path class="cls-1" d="M325.83,390.06l-15.3-25.14-9.39,8.89v13.77q0,5-2.63,7.71a8.24,8.24,0,0,1-6.06,2.7,7.84,7.84,0,0,1-6.28-2.67q-2.29-2.67-2.29-7.87V313.57q0-5.78,2.22-8.79a7.41,7.41,0,0,1,6.35-3,8,8,0,0,1,6.35,2.73q2.35,2.73,2.35,8.06v42l19.49-20.44a47.94,47.94,0,0,1,5.52-5.21,7.62,7.62,0,0,1,4.63-1.4,7.5,7.5,0,0,1,5.4,2.06,6.86,6.86,0,0,1,2.16,5.17q0,3.81-7,10.16l-9.2,8.44,17.77,27.93q2,3.11,2.82,4.73a6.6,6.6,0,0,1,.86,3.08,9.08,9.08,0,0,1-2.25,6.51,7.79,7.79,0,0,1-5.93,2.38,6.61,6.61,0,0,1-4.89-1.71A41.37,41.37,0,0,1,325.83,390.06Z" transform="translate(-201.75 -293.97)"/><path class="cls-1" d="M356.21,319.48a9.14,9.14,0,0,1-6.19-2.22,8.62,8.62,0,0,1,.06-12.35,8.85,8.85,0,0,1,6.13-2.38,9.09,9.09,0,0,1,6,2.16,7.7,7.7,0,0,1,2.6,6.28,7.93,7.93,0,0,1-2.54,6.25A8.78,8.78,0,0,1,356.21,319.48Zm8.57,17.9v50.08q0,5.21-2.48,7.87A8.2,8.2,0,0,1,356,398a7.83,7.83,0,0,1-6.19-2.73q-2.38-2.73-2.38-7.81V337.88q0-5.14,2.38-7.74a8,8,0,0,1,6.19-2.6,8.3,8.3,0,0,1,6.28,2.6A10.08,10.08,0,0,1,364.78,337.38Z" transform="translate(-201.75 -293.97)"/><path class="cls-1" d="M377.14,350.06H379V339.65q0-4.19.22-6.57A9.7,9.7,0,0,1,380.5,329a7.81,7.81,0,0,1,2.92-2.89,8.29,8.29,0,0,1,4.25-1.11,8.56,8.56,0,0,1,6,2.48,7.34,7.34,0,0,1,2.25,4,36.61,36.61,0,0,1,.48,6.76v11.81h6.35a8.12,8.12,0,0,1,5.62,1.75,5.76,5.76,0,0,1,1.94,4.48,5,5,0,0,1-2.76,4.89,17.91,17.91,0,0,1-7.9,1.4h-3.24v10.87a51.73,51.73,0,0,0,.29,6.25,6.37,6.37,0,0,0,1.52,3.55,5.21,5.21,0,0,0,4,1.36,21.54,21.54,0,0,0,4.13-.54,21.48,21.48,0,0,1,4.06-.54,5.22,5.22,0,0,1,3.78,1.68,5.65,5.65,0,0,1,1.68,4.16q0,4.19-4.57,6.41T398.15,398q-8.13,0-12.31-2.73a12.66,12.66,0,0,1-5.49-7.55,51.26,51.26,0,0,1-1.3-12.89V362.56h-2.29a8.25,8.25,0,0,1-5.71-1.78,5.8,5.8,0,0,1-2-4.51,5.6,5.6,0,0,1,2.06-4.48A9.06,9.06,0,0,1,377.14,350.06Z" transform="translate(-201.75 -293.97)"/><path class="cls-2" d="M410.83,320.94V294h7.45q14.25,0,14.25,13.14a13.25,13.25,0,0,1-4,10q-4,3.79-10.6,3.79ZM414,296.83v21.25h4q5.3,0,8.26-2.84t3-8q0-10.36-11-10.36Z" transform="translate(-201.75 -293.97)"/><path class="cls-3" d="M404.1,303a3.77,3.77,0,0,1-2.65-1,3.11,3.11,0,0,1-1.06-2.39,3,3,0,0,1,1.09-2.4,4,4,0,0,1,2.72-.94,3.87,3.87,0,0,1,2.7.95,3.26,3.26,0,0,1,0,4.81A4.06,4.06,0,0,1,404.1,303Zm0,14.89a3.75,3.75,0,0,1-2.65-1,3.14,3.14,0,0,1-1.06-2.4,3,3,0,0,1,1.09-2.4,4,4,0,0,1,2.72-.94,3.87,3.87,0,0,1,2.7.95,3.28,3.28,0,0,1,0,4.82A4,4,0,0,1,404.1,317.92Z" transform="translate(-201.75 -293.97)"/></svg>